<svg xmlns="http://www.w3.org/2000/svg" viewBox="0 0 100 100" width="100" height="100">
  <!-- Left page -->
  <path d="M15 20 Q15 15 20 15 L45 15 Q50 15 50 20 L50 75 Q50 80 45 80 L20 80 Q15 80 15 75 Z"
        fill="#f8fafc" stroke="#e2e8f0" stroke-width="1"/>

  <!-- Right page -->
  <path d="M50 20 Q50 15 55 15 L80 15 Q85 15 85 20 L85 75 Q85 80 80 80 L55 80 Q50 80 50 75 Z"
        fill="#f8fafc" stroke="#e2e8f0" stroke-width="1"/>

  <!-- Center binding/spine -->
  <line x1="50" y1="15" x2="50" y2="80" stroke="#cbd5e1" stroke-width="2"/>

  <!-- Page shadows -->
  <path d="M15 20 Q15 15 20 15 L45 15 Q50 15 50 20 L50 75 Q50 80 45 80 L20 80 Q15 80 15 75 Z"
        fill="none" stroke="#94a3b8" stroke-width="0.5" opacity="0.3"/>
  <path d="M50 20 Q50 15 55 15 L80 15 Q85 15 85 20 L85 75 Q85 80 80 80 L55 80 Q50 80 50 75 Z"
        fill="none" stroke="#94a3b8" stroke-width="0.5" opacity="0.3"/>

  <!-- Text lines on left page -->
  <line x1="20" y1="25" x2="42" y2="25" stroke="#64748b" stroke-width="1" opacity="0.6"/>
  <line x1="20" y1="30" x2="40" y2="30" stroke="#64748b" stroke-width="1" opacity="0.4"/>
  <line x1="20" y1="35" x2="44" y2="35" stroke="#64748b" stroke-width="1" opacity="0.4"/>
  <line x1="20" y1="40" x2="38" y2="40" stroke="#64748b" stroke-width="1" opacity="0.4"/>
  <line x1="20" y1="45" x2="43" y2="45" stroke="#64748b" stroke-width="1" opacity="0.4"/>

  <!-- Text lines on right page -->
  <line x1="55" y1="25" x2="77" y2="25" stroke="#64748b" stroke-width="1" opacity="0.6"/>
  <line x1="55" y1="30" x2="75" y2="30" stroke="#64748b" stroke-width="1" opacity="0.4"/>
  <line x1="55" y1="35" x2="79" y2="35" stroke="#64748b" stroke-width="1" opacity="0.4"/>
  <line x1="55" y1="40" x2="73" y2="40" stroke="#64748b" stroke-width="1" opacity="0.4"/>
  <line x1="55" y1="45" x2="78" y2="45" stroke="#64748b" stroke-width="1" opacity="0.4"/>

  <!-- Page curl effect (bottom right corner) -->
  <path d="M78 75 Q80 73 82 75 Q80 77 78 75" fill="#e2e8f0" stroke="#cbd5e1" stroke-width="0.5"/>

  <!-- Book spine highlight -->
  <line x1="50" y1="15" x2="50" y2="25" stroke="#3b82f6" stroke-width="3" opacity="0.7"/>
</svg>